<svg width="18" height="18" viewBox="0 0 18 18" fill="none" xmlns="http://www.w3.org/2000/svg">
<path d="M5.45825 13.25C4.67909 13.25 4.04159 13.8875 4.04159 14.6667C4.04159 15.4458 4.67909 16.0833 5.45825 16.0833C6.23742 16.0833 6.87492 15.4458 6.87492 14.6667C6.87492 13.8875 6.23742 13.25 5.45825 13.25ZM12.5416 13.25C11.7624 13.25 11.1249 13.8875 11.1249 14.6667C11.1249 15.4458 11.7624 16.0833 12.5416 16.0833C13.3208 16.0833 13.9583 15.4458 13.9583 14.6667C13.9583 13.8875 13.3208 13.25 12.5416 13.25ZM5.59992 10.9833V10.9125L6.23742 9.70832H11.4791C11.9749 9.70832 12.4708 9.42499 12.6833 8.99999L15.4458 4.04166L14.2416 3.33332L11.4791 8.29166H6.52075L3.54575 1.91666H1.20825V3.33332H2.62492L5.17492 8.71666L4.18325 10.4167C4.11242 10.6292 4.04159 10.8417 4.04159 11.125C4.04159 11.9042 4.67909 12.5417 5.45825 12.5417H13.9583V11.125H5.74159C5.67075 11.125 5.59992 11.0542 5.59992 10.9833Z" fill="#E8E8E8"/>
</svg>
