<svg width="17" height="18" viewBox="0 0 17 18" fill="none" xmlns="http://www.w3.org/2000/svg">
<path d="M8.49996 6.24174L8.12029 6.61361C8.16976 6.66416 8.22883 6.70432 8.29402 6.73174C8.35922 6.75915 8.42923 6.77327 8.49996 6.77327C8.57068 6.77327 8.6407 6.75915 8.70589 6.73174C8.77109 6.70432 8.83016 6.66416 8.87963 6.61361L8.49996 6.24174ZM8.09975 10.207C7.64358 9.87124 7.05992 9.39453 6.59596 8.86399C6.11429 8.31503 5.84371 7.80007 5.84371 7.38145H4.78121C4.78121 8.20311 5.27633 8.96953 5.79625 9.56382C6.33317 10.1765 6.98554 10.7064 7.46933 11.0627L8.09975 10.207ZM5.84371 7.38145C5.84371 6.59732 6.19433 6.18437 6.55417 6.04978C6.92108 5.91236 7.50475 5.98603 8.12029 6.61432L8.87963 5.87057C8.06079 5.03403 7.05142 4.72874 6.18229 5.05316C5.3075 5.38041 4.78121 6.26936 4.78121 7.38145H5.84371ZM9.53058 11.0634C10.0144 10.7064 10.6668 10.1779 11.2037 9.56453C11.7236 8.97024 12.2187 8.20453 12.2187 7.38216H11.1562C11.1562 7.80078 10.8849 8.31574 10.404 8.8647C9.94 9.39524 9.35563 9.87124 8.90017 10.207L9.53058 11.0634ZM12.2187 7.38216C12.2187 6.27007 11.6924 5.38111 10.8176 5.05386C9.9485 4.72945 8.93913 5.03474 8.12029 5.87057L8.87963 6.61432C9.49517 5.98532 10.0795 5.91307 10.445 6.04907C10.8063 6.18366 11.1562 6.59732 11.1562 7.38216H12.2187ZM7.46933 11.0634C7.747 11.2681 8.05725 11.5224 8.49996 11.5224V10.4592C8.48933 10.4592 8.47729 10.462 8.42842 10.4351C8.3144 10.3662 8.20465 10.2905 8.09975 10.2084L7.46933 11.0634ZM8.90017 10.207C8.72804 10.3345 8.64092 10.3975 8.5715 10.4351C8.52192 10.462 8.51058 10.4592 8.49996 10.4592V11.5224C8.94267 11.5224 9.25292 11.2674 9.53058 11.0634L8.90017 10.207ZM0.885376 7.93749C0.885376 8.07839 0.941347 8.21351 1.04098 8.31314C1.1406 8.41277 1.27573 8.46874 1.41663 8.46874C1.55752 8.46874 1.69265 8.41277 1.79228 8.31314C1.89191 8.21351 1.94788 8.07839 1.94788 7.93749H0.885376ZM2.17738 11.5684C2.12346 11.4382 2.02003 11.3348 1.88985 11.2808C1.75967 11.2269 1.6134 11.2269 1.48321 11.2808C1.35302 11.3347 1.24958 11.4382 1.19565 11.5683C1.14172 11.6985 1.14171 11.8448 1.19563 11.975L2.17738 11.5684ZM9.72679 15.9204L10.1107 15.2716L9.19696 14.7304L8.81233 15.3792L9.72679 15.9204ZM6.88921 15.2716L7.27313 15.9204L8.18688 15.3792L7.80367 14.7304L6.88921 15.2716ZM8.81233 15.3792C8.77923 15.4322 8.73319 15.4759 8.67854 15.5062C8.62389 15.5365 8.56244 15.5524 8.49996 15.5524C8.43748 15.5524 8.37602 15.5365 8.32138 15.5062C8.26673 15.4759 8.22069 15.4322 8.18758 15.3792L7.27313 15.9204C7.82067 16.8462 9.17854 16.8462 9.72679 15.9204L8.81304 15.3792H8.81233ZM7.43746 2.44791H9.56246V1.38541H7.43746V2.44791ZM15.052 7.93749V8.64582H16.1145V7.93749H15.052ZM5.52708 13.4214C4.63742 13.4058 4.17133 13.3492 3.80583 13.1976L3.39996 14.1793C3.97017 14.4159 4.619 14.469 5.50867 14.4846L5.52708 13.4214ZM1.19563 11.975C1.40031 12.4692 1.70033 12.9182 2.07855 13.2964C2.45677 13.6746 2.90579 13.9746 3.39996 14.1793L3.80583 13.1976C3.06823 12.892 2.48291 12.306 2.17738 11.5684L1.19563 11.975ZM15.052 8.64582C15.052 9.47811 15.052 10.0759 15.0195 10.5477C14.9876 11.0145 14.9267 11.3191 14.8233 11.5684L15.8043 11.975C15.9708 11.5741 16.0437 11.1406 16.0798 10.6199C16.1153 10.1036 16.1145 9.46395 16.1145 8.64582H15.052ZM11.4913 14.4832C12.3809 14.4683 13.0298 14.4159 13.6 14.1793L13.1934 13.1976C12.8286 13.3492 12.3625 13.4058 11.4735 13.4214L11.4913 14.4839V14.4832ZM14.8233 11.5684C14.5177 12.306 13.9317 12.892 13.1941 13.1976L13.6 14.1793C14.0941 13.9746 14.5431 13.6746 14.9214 13.2964C15.2996 12.9182 15.5996 12.4692 15.8043 11.975L14.8233 11.5684ZM9.56246 2.44791C10.7319 2.44791 11.572 2.44791 12.2272 2.51095C12.8746 2.57257 13.2862 2.69016 13.6148 2.89132L14.1695 1.98537C13.646 1.6652 13.0524 1.52212 12.3278 1.4527C11.611 1.3847 10.7114 1.38541 9.56246 1.38541V2.44791ZM16.1145 7.93749C16.1145 6.78857 16.1145 5.8897 16.0465 5.17216C15.9778 4.44753 15.8348 3.85324 15.5146 3.33049L14.6079 3.88511C14.8098 4.21378 14.9274 4.62532 14.989 5.27345C15.0513 5.92795 15.052 6.76803 15.052 7.93749H16.1145ZM13.6141 2.89132C14.0194 3.13945 14.3602 3.48 14.6086 3.88511L15.5146 3.33049C15.1787 2.78222 14.7177 2.32128 14.1695 1.98537L13.6148 2.89203L13.6141 2.89132ZM7.43746 1.38541C6.28854 1.38541 5.38967 1.38541 4.67213 1.4527C3.9475 1.52212 3.35321 1.6652 2.83046 1.98537L3.38508 2.89203C3.71375 2.69016 4.12529 2.57257 4.77342 2.51095C5.42792 2.44862 6.268 2.44791 7.43746 2.44791V1.38541ZM1.94788 7.93749C1.94788 6.76803 1.94788 5.92795 2.01092 5.27274C2.07254 4.62532 2.19013 4.21378 2.39129 3.88511L1.48533 3.3312C1.16517 3.85395 1.02208 4.44753 0.952668 5.17216C0.885376 5.89041 0.885376 6.78857 0.885376 7.93749H1.94788ZM2.83046 1.98537C2.28219 2.32128 1.82125 2.78293 1.48533 3.3312L2.392 3.88511C2.64001 3.48016 2.98031 3.13963 3.38508 2.89132L2.83046 1.98537ZM7.80296 14.7304C7.65988 14.4874 7.53379 14.2728 7.41054 14.1042C7.28377 13.9194 7.11909 13.7636 6.92746 13.6474L6.39338 14.5661C6.42667 14.5859 6.47271 14.6213 6.55204 14.7304C6.63775 14.848 6.73479 15.0109 6.88921 15.2716L7.80296 14.7304ZM5.50867 14.4832C5.82033 14.4889 6.01654 14.4931 6.16671 14.5094C6.30696 14.525 6.3615 14.5477 6.39338 14.5661L6.92746 13.6474C6.72913 13.5375 6.5096 13.4713 6.28358 13.4533C6.0725 13.4299 5.81892 13.4264 5.52708 13.4214L5.50867 14.4846V14.4832ZM10.1107 15.2716C10.2651 15.0116 10.3622 14.848 10.4479 14.7304C10.5272 14.6213 10.5733 14.5859 10.6065 14.5661L10.0725 13.6474C9.86704 13.7678 9.71829 13.9272 9.58938 14.1042C9.46683 14.2728 9.34004 14.4867 9.19625 14.7304L10.1107 15.2716ZM11.4735 13.4214C11.1817 13.4264 10.9274 13.4299 10.7163 13.4533C10.496 13.4781 10.28 13.5269 10.0725 13.6474L10.6065 14.5661C10.6384 14.5477 10.693 14.525 10.8332 14.5094C10.9834 14.4931 11.1803 14.4882 11.492 14.4832L11.4735 13.4207V13.4214Z" fill="white"/>
</svg>
