<svg width="100" height="100" viewBox="0 0 100 100" fill="none" xmlns="http://www.w3.org/2000/svg">
<rect width="100" height="100" rx="15" fill="url(#paint0_linear_45_12)"/>
<path d="M35.2122 65.5376C35.2773 66.4687 35.2302 67.2672 35.0709 67.9333C34.929 68.5795 34.6242 69.1715 34.1566 69.7094C33.7063 70.2274 33.0427 70.6387 32.1658 70.9433C31.2876 71.2293 30.1875 71.4185 28.8654 71.5109L18.1954 72.257L12.6649 72.6438L11.2938 53.0356L25.2597 52.059C26.5818 51.9666 27.7062 51.9909 28.633 52.1319C29.5784 52.2716 30.3367 52.5461 30.908 52.9552C31.4965 53.3444 31.9327 53.8285 32.2165 54.4075C32.4989 54.9678 32.6688 55.6576 32.7261 56.477C32.8498 58.246 32.492 59.5528 31.6529 60.3974C32.0518 60.4818 32.4273 60.6333 32.7794 60.8519C33.1488 61.0506 33.5154 61.3431 33.8793 61.7293C34.2418 62.0969 34.5396 62.6094 34.7727 63.2668C35.0058 63.9241 35.1523 64.6811 35.2122 65.5376ZM18.2107 58.0253L18.3416 59.8967L25.6876 59.383C25.9483 59.3648 26.156 59.2567 26.3105 59.0588C26.4837 58.8596 26.5612 58.6296 26.543 58.3689C26.5247 58.1082 26.4167 57.9006 26.2187 57.746C26.0381 57.5715 25.8175 57.4934 25.5568 57.5116L18.2107 58.0253ZM28.3747 66.1C28.654 66.0804 28.8803 65.971 29.0535 65.7718C29.2267 65.5726 29.3042 65.3426 29.2859 65.0819C29.2664 64.8026 29.157 64.5763 28.9578 64.4031C28.7585 64.23 28.5193 64.1531 28.24 64.1727L18.6873 64.8406L18.822 66.7679L28.3747 66.1ZM50.0876 70.0269C47.1641 70.2313 44.7046 70.1133 42.709 69.6727C40.7134 69.2322 39.2937 68.3304 38.4499 66.9673C37.8356 65.9436 37.3807 64.6562 37.0851 63.105C36.7882 61.5353 36.5291 59.1676 36.3077 56.002L36.0075 51.3075L42.8788 50.827L43.4921 59.5976C43.5311 60.1562 43.5942 60.657 43.6813 61.1C43.7671 61.5244 43.94 61.9895 44.1999 62.4953C44.4785 62.9997 44.8349 63.4145 45.2693 63.7397C45.7024 64.0462 46.2999 64.2945 47.0616 64.4845C47.8221 64.6559 48.7051 64.7064 49.7107 64.6361C50.7348 64.5644 51.6022 64.3915 52.3128 64.1173C53.0407 63.8231 53.5792 63.4954 53.9282 63.1342C54.2958 62.7717 54.5731 62.3219 54.7601 61.7849C54.9458 61.2292 55.0423 60.736 55.0496 60.3051C55.0755 59.8729 55.0683 59.3682 55.0279 58.7909L54.4146 50.0203L61.2858 49.5398L61.614 54.2324C61.8539 57.3967 61.9362 59.7768 61.8606 61.3726C61.7838 62.9498 61.5125 64.288 61.0467 65.3871C60.4021 66.8731 59.141 67.9717 57.2634 68.6831C55.4031 69.3745 53.0112 69.8225 50.0876 70.0269ZM80.4959 48.1965L88.1772 47.6594L79.6491 62.1777L80.0515 67.9316L73.5713 68.3848L73.1689 62.6308L62.7313 49.4388L70.4125 48.9016L75.9129 55.3096L80.4959 48.1965Z" fill="url(#paint1_linear_45_12)"/>
<g filter="url(#filter0_d_45_12)">
<path d="M22.2565 37.5167L26.7653 37.2014L27.5586 48.5461L23.7932 48.8094L23.4169 43.428L20.8843 49.0129L17.7815 49.2298L14.6117 44.0762L14.9857 49.4253L11.2203 49.6886L10.427 38.3439L14.1924 38.0806L14.937 38.0448L19.0277 44.0597L22.2565 37.5167ZM27.8358 37.1266L40.3603 36.2508L40.5806 39.4021L31.8216 40.0146L31.8917 41.0165L40.1012 40.4425L40.3126 43.4645L32.103 44.0386L32.1742 45.0567L40.9332 44.4442L41.1536 47.5955L28.6291 48.4713L27.8358 37.1266ZM54.886 39.4249C55.011 41.2133 54.4054 42.5386 53.0691 43.4007L55.6301 46.5832L51.2818 46.871L49.1561 44.3401L45.7462 44.5786L45.9338 47.2612L42.1684 47.5245L41.3751 36.1798L45.1405 35.9165L49.7139 35.5967C49.9294 35.5817 50.1345 35.5727 50.3292 35.5699C50.5238 35.5671 50.7958 35.586 51.1451 35.6266C51.5044 35.6556 51.8279 35.7141 52.1155 35.8023C52.4132 35.8789 52.7312 36.0137 53.0694 36.2065C53.407 36.3886 53.6936 36.6176 53.9295 36.8934C54.1753 37.1577 54.3837 37.5058 54.5546 37.9378C54.7364 38.3689 54.8468 38.8646 54.886 39.4249ZM49.7325 40.9707C50.6698 40.9052 51.1136 40.5169 51.0638 39.8058C51.0186 39.1594 50.5058 38.8705 49.5254 38.939L45.3722 39.2294L45.5146 41.2657L49.7325 40.9707ZM63.4684 34.5375C64.8905 34.438 66.122 34.4764 67.1628 34.6526C68.2029 34.8181 69.0354 35.1117 69.6603 35.5336C70.2845 35.9446 70.7524 36.4424 71.0639 37.0269C71.3755 37.6114 71.5591 38.3023 71.6148 39.0995L67.7525 39.3696C67.7379 39.3165 67.7115 39.248 67.6731 39.164C67.6456 39.0794 67.5438 38.9403 67.3679 38.7469C67.1912 38.5427 66.968 38.3689 66.6981 38.2254C66.4275 38.0711 66.0237 37.9477 65.4867 37.8554C64.9598 37.7515 64.3516 37.7236 63.6621 37.7718C63.048 37.8148 62.5127 37.9009 62.0562 38.0303C61.6105 38.1589 61.2582 38.308 60.9994 38.4777C60.7514 38.6466 60.5549 38.8552 60.4098 39.1036C60.2748 39.3403 60.1883 39.5738 60.1502 39.8038C60.1114 40.023 60.1015 40.2673 60.1203 40.5366C60.1467 40.9137 60.2293 41.2436 60.3681 41.5262C60.507 41.8088 60.7197 42.0646 61.0064 42.2935C61.2923 42.5117 61.6876 42.6681 62.1922 42.7627C62.6968 42.8574 63.3047 42.8798 64.0158 42.8301C64.7484 42.7789 65.3803 42.6805 65.9114 42.5351C66.4426 42.3897 66.8268 42.233 67.064 42.0648C67.3012 41.8966 67.4846 41.7322 67.6141 41.5716C67.7537 41.3995 67.8304 41.2588 67.8445 41.1495L67.8655 40.9857L71.7278 40.7156C71.7663 41.265 71.7313 41.7709 71.6229 42.2332C71.5137 42.6847 71.296 43.133 70.9699 43.578C70.6437 44.0231 70.2049 44.4056 69.6535 44.7256C69.1129 45.0449 68.3961 45.3224 67.5032 45.5581C66.6095 45.783 65.5647 45.9372 64.3688 46.0208C62.9036 46.1233 61.6678 46.1014 60.6616 45.9553C59.6546 45.7983 58.8329 45.504 58.1964 45.0721C57.5699 44.6287 57.1037 44.0767 56.7976 43.416C56.4916 42.7554 56.3039 41.9295 56.2346 40.9383C56.1601 39.8717 56.258 38.95 56.5285 38.1732C56.809 37.385 57.262 36.7416 57.8875 36.2431C58.5123 35.7339 59.2809 35.3445 60.1931 35.0751C61.1053 34.8056 62.1971 34.6264 63.4684 34.5375ZM82.7524 33.2864L86.5178 33.0231L87.3111 44.3678L83.5457 44.6311L83.27 40.688L76.5149 41.1603L76.7906 45.1035L73.0252 45.3668L72.2319 34.0221L75.9973 33.7588L76.2719 37.6858L83.027 37.2135L82.7524 33.2864Z" fill="white"/>
</g>
<defs>
<filter id="filter0_d_45_12" x="0.420227" y="22.9262" width="96.8943" height="36.8109" filterUnits="userSpaceOnUse" color-interpolation-filters="sRGB">
<feFlood flood-opacity="0" result="BackgroundImageFix"/>
<feColorMatrix in="SourceAlpha" type="matrix" values="0 0 0 0 0 0 0 0 0 0 0 0 0 0 0 0 0 0 127 0" result="hardAlpha"/>
<feOffset/>
<feGaussianBlur stdDeviation="5"/>
<feComposite in2="hardAlpha" operator="out"/>
<feColorMatrix type="matrix" values="0 0 0 0 0.0666667 0 0 0 0 0.0666667 0 0 0 0 0.0666667 0 0 0 1 0"/>
<feBlend mode="normal" in2="BackgroundImageFix" result="effect1_dropShadow_45_12"/>
<feBlend mode="normal" in="SourceGraphic" in2="effect1_dropShadow_45_12" result="shape"/>
</filter>
<linearGradient id="paint0_linear_45_12" x1="50" y1="0" x2="50" y2="100" gradientUnits="userSpaceOnUse">
<stop stop-color="#111111"/>
<stop offset="1" stop-color="#181818"/>
</linearGradient>
<linearGradient id="paint1_linear_45_12" x1="49.6164" y1="51.0135" x2="51.43" y2="76.9501" gradientUnits="userSpaceOnUse">
<stop stop-color="white" stop-opacity="0.63"/>
<stop offset="1" stop-color="white" stop-opacity="0.14"/>
</linearGradient>
</defs>
</svg>
